HIERARCHY
ROOT Hips
{
	OFFSET 0.000000 0.000000 0.000000
	CHANNELS 6 Xposition Yposition Zposition Zrotation Yrotation Xrotation 
	JOINT LHipJoint
	{
		OFFSET 0.000000 0.000000 0.000000
		CHANNELS 3 Zrotation Yrotation Xrotation
		JOINT LeftUpLeg
		{
			OFFSET 1.363060 -1.794630 0.839290
			CHANNELS 3 Zrotation Yrotation Xrotation
			JOINT LeftLeg
			{
				OFFSET 2.448110 -6.726130 0.000000
				CHANNELS 3 Zrotation Yrotation Xrotation
				JOINT LeftFoot
				{
					OFFSET 2.562200 -7.039590 0.000000
					CHANNELS 3 Zrotation Yrotation Xrotation
					JOINT LeftToeBase
					{
						OFFSET 0.157640 -0.433110 2.322550
						CHANNELS 3 Zrotation Yrotation Xrotation
						End Site
						{
							OFFSET 0.000000 0.000000 0.000000
						}
					}
				}
			}
		}
	}
	JOINT RHipJoint
	{
		OFFSET 0.000000 0.000000 0.000000
		CHANNELS 3 Zrotation Yrotation Xrotation
		JOINT RightUpLeg
		{
			OFFSET -1.305520 -1.794630 0.839290
			CHANNELS 3 Zrotation Yrotation Xrotation
			JOINT RightLeg
			{
				OFFSET -2.542530 -6.985550 0.000000
				CHANNELS 3 Zrotation Yrotation Xrotation
				JOINT RightFoot
				{
					OFFSET -2.568260 -7.056230 0.000000
					CHANNELS 3 Zrotation Yrotation Xrotation
					JOINT RightToeBase
					{
						OFFSET -0.164730 -0.452590 2.363150
						CHANNELS 3 Zrotation Yrotation Xrotation
						End Site
						{
							OFFSET 0.000000 0.000000 0.000000
						}
					}
				}
			}
		}
	}
	JOINT LowerBack
	{
		OFFSET 0.000000 0.000000 0.000000
		CHANNELS 3 Zrotation Yrotation Xrotation
		JOINT Spine
		{
			OFFSET 0.028270 2.035590 -0.193380
			CHANNELS 3 Zrotation Yrotation Xrotation
			JOINT Spine1
			{
				OFFSET 0.056720 2.048850 -0.042750
				CHANNELS 3 Zrotation Yrotation Xrotation
				JOINT Neck
				{
					OFFSET 0.000000 0.000000 0.000000
					CHANNELS 3 Zrotation Yrotation Xrotation
					JOINT Neck1
					{
						OFFSET -0.054170 1.746240 0.172020
						CHANNELS 3 Zrotation Yrotation Xrotation
						JOINT Head
						{
							OFFSET 0.104070 1.761360 -0.123970
							CHANNELS 3 Zrotation Yrotation Xrotation
							End Site
							{
								OFFSET 0.000000 0.000000 0.000000
							}
						}
					}
				}
				JOINT LeftShoulder
				{
					OFFSET 0.000000 0.000000 0.000000
					CHANNELS 3 Zrotation Yrotation Xrotation
					JOINT LeftArm
					{
						OFFSET 3.362410 1.200890 -0.311210
						CHANNELS 3 Zrotation Yrotation Xrotation
						JOINT LeftForeArm
						{
							OFFSET 4.983000 -0.000000 -0.000000
							CHANNELS 3 Zrotation Yrotation Xrotation
							JOINT LeftHand
							{
								OFFSET 3.483560 -0.000000 -0.000000
								CHANNELS 3 Zrotation Yrotation Xrotation
								JOINT LeftFingerBase
								{
									OFFSET 0.000000 0.000000 0.000000
									CHANNELS 3 Zrotation Yrotation Xrotation
									JOINT LeftHandIndex1
									{
										OFFSET 0.715260 -0.000000 -0.000000
										CHANNELS 3 Zrotation Yrotation Xrotation
										End Site
										{
											OFFSET 0.000000 0.000000 0.000000
										}
									}
								}
								JOINT LThumb
								{
									OFFSET 0.000000 0.000000 0.000000
									CHANNELS 3 Zrotation Yrotation Xrotation
									End Site
									{
										OFFSET 0.000000 0.000000 0.000000
									}
								}
							}
						}
					}
				}
				JOINT RightShoulder
				{
					OFFSET 0.000000 0.000000 0.000000
					CHANNELS 3 Zrotation Yrotation Xrotation
					JOINT RightArm
					{
						OFFSET -3.136600 1.374050 -0.404650
						CHANNELS 3 Zrotation Yrotation Xrotation
						JOINT RightForeArm
						{
							OFFSET -5.241900 -0.000000 -0.000000
							CHANNELS 3 Zrotation Yrotation Xrotation
							JOINT RightHand
							{
								OFFSET -3.444170 -0.000000 -0.000000
								CHANNELS 3 Zrotation Yrotation Xrotation
								JOINT RightFingerBase
								{
									OFFSET 0.000000 0.000000 0.000000
									CHANNELS 3 Zrotation Yrotation Xrotation
									JOINT RightHandIndex1
									{
										OFFSET -0.622530 -0.000000 -0.000000
										CHANNELS 3 Zrotation Yrotation Xrotation
										End Site
										{
											OFFSET 0.000000 0.000000 0.000000
										}
									}
								}
								JOINT RThumb
								{
									OFFSET 0.000000 0.000000 0.000000
									CHANNELS 3 Zrotation Yrotation Xrotation
									End Site
									{
										OFFSET 0.000000 0.000000 0.000000
									}
								}
							}
						}
					}
				}
			}
		}
	}
}
MOTION
Frames: 5
Frame Time: 0.008333
19.215433 18.443126 -3.883310 -80.795271 75.668172 -81.054416 14.399822 0.599775 -2.271963 -11.051768 -28.666042 -12.716069 -10.658790 3.936873 3.971718 -2.019711 9.460810 -11.884628 10.597300 -17.732300 -61.466600 -20.510894 -5.063492 -5.136118 48.833516 -15.200975 4.567101 3.428115 -16.049655 46.446551 1.353237 -20.160123 0.669083 -0.027900 -1.077600 2.962300 13.093228 1.736492 11.303970 2.022508 4.046073 -4.681453 0.506775 1.537388 -13.447837 -3.286869 -3.067919 -14.256501 0.513958 -1.447102 20.751502 -1.835100 -0.203100 17.791700 8.268795 -7.906411 0.831576 -82.023045 43.168652 35.476211 83.533251 -57.052947 -52.471808 -1.660895 0.890232 2.929788 39.590489 31.757269 23.633800 -7.125000 0.000000 0.000000 14.654700 66.806200 7.768400 -8.137673 6.970650 0.159572 67.743567 -18.611070 42.782973 -79.292943 58.718818 -45.445418 1.795004 -1.734168 -14.950892 -30.938317 -12.796535 6.335300 7.125000 0.000000 0.000000 -4.728300 -41.855700 -0.367700 
20.005048 18.305884 -3.835069 -75.857532 76.053898 -76.606679 14.254262 1.295806 -2.188992 -13.060459 -27.000702 -10.960801 -10.801296 3.974380 5.228981 -1.916271 9.162464 -9.020608 10.694000 -17.782100 -61.783900 -20.071616 -4.885805 -5.079994 47.048483 -15.429031 3.060573 1.387416 -17.178927 51.940445 1.876625 -21.419493 -6.811652 -0.003300 -0.370600 1.018200 11.874532 1.831576 10.864884 2.102966 3.898137 -4.563141 1.214859 1.643234 -12.974277 -2.862317 -2.921431 -14.178108 0.571551 -1.358685 20.850003 -1.937800 -0.067600 17.831700 8.266757 -7.779137 0.751331 -80.580495 43.297056 36.637224 81.837911 -57.171205 -51.032108 -1.650402 0.880402 1.286096 40.683640 31.008569 23.891600 -7.125000 0.000000 0.000000 16.331200 66.212700 8.454400 -8.081579 7.010441 0.201105 67.159280 -19.139091 43.762957 -79.059452 58.713387 -45.196088 1.787830 -1.695358 -15.394060 -30.415309 -12.835861 6.260600 7.125000 0.000000 0.000000 -4.239200 -41.903800 -0.324400 
20.792654 18.098960 -3.794868 -71.293194 76.470920 -72.782946 14.185333 1.993225 -2.070043 -15.298366 -24.842180 -9.163461 -10.991712 4.193424 6.853850 -3.232853 12.927921 -6.192880 10.392400 -17.624700 -60.791900 -19.694978 -4.730271 -4.974967 45.230206 -15.544373 1.638548 -0.551956 -18.062088 57.091791 2.007975 -22.309115 -14.265548 -0.000900 0.194000 -0.533000 11.075027 1.813054 11.178816 2.057953 3.916649 -4.601385 1.047605 1.696026 -13.649910 -1.636480 -2.919807 -12.769970 0.264076 -1.904156 20.465213 -2.485500 -0.060300 17.025500 8.189539 -7.779800 0.639770 -78.601062 45.073317 38.619001 84.140603 -56.865655 -53.183255 -1.643683 0.842486 1.395307 40.898735 30.714506 23.886700 -7.125000 0.000000 0.000000 16.645600 66.005500 8.541900 -7.993783 7.124507 0.270392 67.367861 -20.545600 44.248364 -77.801839 58.745980 -44.056114 1.779194 -1.680191 -15.515509 -29.708938 -13.066964 6.244600 7.125000 0.000000 0.000000 -3.582500 -42.134600 -0.253600 
21.556474 17.832852 -3.744170 -66.169615 77.114258 -68.878813 14.295431 2.438382 -2.070983 -17.833943 -22.109281 -8.382812 -11.060518 5.147024 9.497146 -4.821591 18.017980 -3.742365 7.464600 -15.710900 -50.610200 -19.383405 -4.590165 -4.842295 43.405224 -15.104692 0.581903 -2.220075 -18.619512 61.433614 1.366679 -20.834109 -20.096923 -0.018500 -0.878500 2.414600 9.957132 1.693626 12.256039 1.969465 3.872815 -4.637606 1.042608 1.708235 -14.564675 -1.590316 -2.955907 -11.770974 0.803044 -1.996327 20.441345 -2.066100 -0.033800 16.776000 8.051443 -7.758963 0.498148 -76.693302 45.102664 40.369562 82.227195 -56.833266 -51.499436 -1.606949 0.921318 3.278610 39.507248 29.982134 22.419200 -7.125000 0.000000 0.000000 14.462800 64.805000 6.998900 -7.991977 7.285783 0.371147 68.011808 -21.512151 44.100921 -74.567512 58.747508 -41.357499 1.750112 -1.684193 -15.305567 -29.058606 -13.446302 6.312000 7.125000 0.000000 0.000000 -2.954900 -42.525900 -0.180600 
22.265911 17.532572 -3.678061 -59.987460 78.021222 -64.103617 14.645464 2.647309 -2.130987 -20.783291 -18.915359 -8.414312 -10.573083 7.295652 15.082898 -2.713129 11.611641 -2.433758 7.184800 -15.485500 -49.569800 -19.139310 -4.435361 -4.721999 41.881993 -13.629653 -0.726833 -3.572916 -19.046982 64.926742 0.337196 -17.126146 -22.862944 -0.079600 -1.820000 5.008500 8.335210 1.571102 14.035144 1.874633 3.797979 -4.667043 1.048465 1.731907 -15.716471 -1.012157 -2.877284 -11.170615 0.716504 -2.011257 20.661127 -2.264100 0.105000 16.902200 7.977559 -7.776770 0.373029 -75.178692 44.173277 41.845924 78.988266 -56.850074 -48.628720 -1.569035 1.004541 5.342561 38.398216 29.545014 21.375100 -7.125000 0.000000 0.000000 12.839200 64.005700 5.961500 -7.957020 7.432924 0.487187 69.382282 -22.100127 43.191424 -69.484721 58.470915 -37.317989 1.694153 -1.704287 -14.700757 -28.472361 -13.986343 6.468500 7.125000 0.000000 0.000000 -2.354800 -43.097200 -0.110600 
